<?xml version="1.0" standalone="no"?><!DOCTYPE svg PUBLIC "-//W3C//DTD SVG 1.1//EN" "http://www.w3.org/Graphics/SVG/1.1/DTD/svg11.dtd"><svg t="1774574261460" class="icon" viewBox="0 0 1024 1024" version="1.1" xmlns="http://www.w3.org/2000/svg" p-id="1940" width="30" height="30" xmlns:xlink="http://www.w3.org/1999/xlink"><path d="M698.8 337.6H325.2c-18.4 0-33.5-14.4-33.5-32s15.1-32 33.5-32h373.7c18.4 0 33.5 14.4 33.5 32-0.1 17.6-15.1 32-33.6 32z" fill="#bfbfbf" p-id="1941"></path><path d="M508.4 547.8l1.8-1.8-1.8 1.8zM508.2 545.8l2.2 2.2c-0.7-0.8-1.4-1.5-2.2-2.2zM511.1 508.7l1.8 1.8-1.8-1.8z" fill="#bfbfbf" p-id="1942"></path><path d="M510.9 510.7l2.2-2.2c-0.8 0.7-1.5 1.4-2.2 2.2z" fill="#bfbfbf" p-id="1943"></path><path d="M544 472.4v246c0 17.6-14.4 32-32 32s-32-14.4-32-32v-246c0-17.6 14.4-32 32-32s32 14.4 32 32z" fill="#bfbfbf" p-id="1944"></path><path d="M511.9 379c-8.3 0-15.8 3.1-21.5 8.3l-2.2 2.2-21.5 21.5L311 566.7c-12.4 12.4-12.4 32.8 0 45.3 12.4 12.4 32.8 12.4 45.3 0L512 456.2l155.8 155.7c12.4 12.4 32.8 12.4 45.3 0 12.4-12.4 12.4-32.8-0.1-45.2L557.3 411l-21.8-21.8-1.8-1.8c-5.7-5.3-13.4-8.5-21.8-8.4z" fill="#bfbfbf" p-id="1945"></path></svg>