<?xml version="1.0" standalone="no"?><!DOCTYPE svg PUBLIC "-//W3C//DTD SVG 1.1//EN" "http://www.w3.org/Graphics/SVG/1.1/DTD/svg11.dtd"><svg t="1775434753093" class="icon" viewBox="0 0 1024 1024" version="1.1" xmlns="http://www.w3.org/2000/svg" p-id="5398" xmlns:xlink="http://www.w3.org/1999/xlink" width="30" height="30"><path d="M890.383284 549.826866c6.113433 8.40597 9.170149 18.340299 8.40597 28.274627-8.40597 204.8-177.289552 368.334328-384.38209 368.334328-207.092537 0-375.976119-163.534328-384.382089-368.334328-0.764179-9.934328 2.292537-19.868657 8.40597-28.274627l343.880597-456.214926c17.576119-22.925373 51.964179-22.925373 69.540298 0l338.531344 456.214926z" fill="#00F9E5" p-id="5399"></path><path d="M394.698507 703.426866c-77.946269 70.304478-197.158209 64.191045-267.462686-12.991045-70.304478-77.946269-64.191045-197.158209 12.991045-267.462687 77.946269-70.304478 197.158209-64.191045 267.462686 12.991045s64.955224 197.158209-12.991045 267.462687z" fill="#FFFFFF" p-id="5400"></path><path d="M267.844776 769.910448c-56.549254 0-113.098507-22.925373-153.6-68.011941-76.41791-84.823881-70.304478-216.262687 14.519403-292.680597 41.265672-37.444776 93.99403-56.549254 149.014925-53.492537 55.020896 3.056716 106.220896 26.746269 143.665672 68.01194 76.41791 84.823881 70.304478 216.262687-14.519403 292.680597-39.737313 35.916418-89.408955 53.492537-139.080597 53.492538z m-0.764179-379.032836c-42.79403 0-83.295522 15.283582-115.391045 44.322388-70.304478 63.426866-75.653731 172.704478-12.226865 243.008955 30.567164 34.38806 73.361194 54.256716 119.21194 56.549254 45.850746 2.292537 90.173134-13.755224 123.797015-44.322388 70.304478-63.426866 75.653731-172.704478 12.226865-243.008955-30.567164-34.38806-73.361194-54.256716-119.21194-56.549254h-8.40597z" fill="#0C6066" p-id="5401"></path><path d="M199.068657 487.164179c-41.265672 37.444776-44.322388 100.871642-6.877612 141.373134 37.444776 41.265672 100.871642 44.322388 141.373134 6.877612 13.755224-12.226866 22.925373-27.510448 28.274627-43.558209l-162.770149-104.692537z" fill="#1E1E1E" p-id="5402"></path><path d="M260.967164 367.952239l209.385075-288.095523c11.462687-15.283582 29.038806-24.453731 48.143283-24.453731s36.680597 9.170149 48.143284 24.453731l206.328358 288.859702-41.265671 3.056716-191.808956-270.519403c-4.585075-6.113433-12.226866-9.934328-20.632836-9.934328s-15.283582 3.820896-19.868656 9.934328l-200.979105 275.104478-37.444776-8.40597z m-65.719403 372.155224c17.576119 33.623881 41.265672 64.191045 69.540299 91.701492 68.01194 64.955224 157.420896 101.635821 251.414925 101.635821 93.99403 0 183.402985-35.916418 251.414925-101.635821 30.567164-29.038806 55.020896-62.662687 73.361194-99.343283l49.671642-26.746269c-20.632836 56.549254-54.256716 108.513433-98.579104 151.307463-74.889552 71.832836-172.704478 111.570149-275.868657 111.570149a395.309851 395.309851 0 0 1-38.025552-1.795821 402.600119 402.600119 0 0 1-37.681672-5.41803 396.181015 396.181015 0 0 1-72.956179-21.473433 402.714746 402.714746 0 0 1-34.609672-15.864358 396.662448 396.662448 0 0 1-48.678209-29.795343 404.074985 404.074985 0 0 1-29.864119-23.613134 392.482388 392.482388 0 0 1-14.053254-12.845851c-43.558209-42.029851-76.41791-91.701493-97.050746-146.722388l51.964179 29.038806z" fill="#0C6066" p-id="5403"></path><path d="M441.313433 639.235821c29.802985-68.776119 17.576119-152.071642-38.973134-209.385075-70.304478-71.068657-185.695522-74.889552-260.585075-9.170149-5.349254 5.349254-10.698507 9.934328-16.047761 16.047761-1.528358 1.528358-0.764179 3.820896 0.764179 4.585075l309.492537 199.450746c1.528358 0.764179 4.585075 0 5.349254-1.528358z" fill="#0ED9EA" p-id="5404"></path><path d="M441.313433 639.235821l16.047761 6.877612c11.462687-26.746269 17.576119-55.020896 17.576119-83.295523 0-52.728358-19.868657-105.456716-59.60597-145.958209-40.501493-40.501493-93.99403-61.134328-147.486567-61.134328-48.907463 0-98.579104 16.81194-137.552239 51.964179-6.113433 5.349254-12.226866 11.462687-17.576119 16.811941-3.820896 4.585075-5.349254 9.170149-5.349254 14.519403 0 6.877612 3.056716 13.755224 9.934329 17.576119l308.728358 198.686567c3.820896 2.292537 7.641791 3.056716 11.462686 3.056717s7.641791-0.764179 11.462687-3.056717c3.056716-2.292537 6.113433-5.349254 8.40597-9.170149l-16.047761-6.877612-16.047761-6.877612 12.991044 6.113433-7.641791-12.226866c-2.292537 1.528358-4.585075 3.820896-5.349253 6.113433l12.991044 6.113433-7.641791-12.226866 7.641791 12.226866v-14.519403c-3.056716 0-5.349254 0.764179-7.641791 2.292537l7.641791 12.226866v-14.519403 14.519403l7.641791-12.226866c-2.292537-1.528358-5.349254-2.292537-7.641791-2.292537v14.519403l7.641791-12.226866-309.492537-199.450746-7.641791 12.226866h14.519403c0-4.585075-2.292537-9.170149-6.877612-12.226866l-7.641791 12.226866h14.519403-14.519403l10.698508 9.934328c2.292537-3.056716 3.820896-6.113433 3.820895-9.934328h-14.519403l10.698508 9.934328c4.585075-4.585075 9.170149-9.934328 14.519403-14.519403 32.095522-28.274627 72.597015-42.79403 113.862686-42.79403 44.322388 0 89.408955 16.81194 122.268657 50.435821 33.623881 33.623881 49.671642 77.18209 49.671642 120.740298 0 23.689552-4.585075 47.379104-14.519403 68.77612l16.047761 7.641791z" fill="#0C6066" p-id="5405"></path><path d="M639.235821 703.426866c77.946269 70.304478 197.158209 64.191045 267.462686-12.991045 70.304478-77.946269 64.191045-197.158209-12.991044-267.462687-77.946269-70.304478-197.158209-64.191045-267.462687 12.991045s-64.955224 197.158209 12.991045 267.462687z" fill="#FFFFFF" p-id="5406"></path><path d="M627.008955 716.41791c-84.823881-76.41791-90.937313-207.856716-14.519403-292.680597 37.444776-41.265672 87.880597-64.955224 143.665672-68.01194 55.020896-3.056716 108.513433 16.047761 149.014925 53.492537 84.823881 76.41791 90.937313 207.856716 14.519403 292.680597-40.501493 45.086567-97.050746 68.01194-153.6 68.011941-49.671642 0-99.343284-17.576119-139.080597-53.492538z m130.674627-325.540298c-45.850746 2.292537-87.880597 22.161194-119.21194 56.549254-63.426866 70.304478-58.077612 179.58209 12.226865 243.008955 34.38806 30.567164 77.946269 46.614925 123.797015 44.322388 45.850746-2.292537 87.880597-22.161194 119.211941-56.549254 63.426866-70.304478 58.077612-179.58209-12.226866-243.008955-32.095522-29.038806-72.597015-44.322388-115.391045-44.322388h-8.40597z" fill="#0C6066" p-id="5407"></path><path d="M834.865672 486.4c41.265672 37.444776 44.322388 100.871642 6.877612 141.373134-37.444776 41.265672-100.871642 44.322388-141.373135 6.877612-13.755224-12.226866-22.925373-27.510448-28.274627-43.558209l162.77015-104.692537z" fill="#1E1E1E" p-id="5408"></path><path d="M592.620896 638.471642c-29.802985-68.776119-17.576119-152.071642 38.973134-209.385075 70.304478-71.068657 185.695522-74.889552 260.585074-9.170149 5.349254 5.349254 10.698507 9.934328 16.047762 16.047761 1.528358 1.528358 0.764179 3.820896-0.764179 4.585075l-309.492538 199.450746c-2.292537 1.528358-4.585075 0.764179-5.349253-1.528358z" fill="#0ED9EA" p-id="5409"></path><path d="M592.620896 638.471642l16.047761-6.877612c-9.934328-22.161194-14.519403-45.086567-14.519403-68.77612 0-43.558209 16.047761-87.116418 49.671642-120.740298 32.859701-33.623881 77.946269-50.435821 122.268656-50.435821 40.501493 0 81.002985 14.519403 113.862687 42.79403 5.349254 4.585075 9.934328 9.170149 14.519403 14.519403l10.698507-9.934328h-14.519403c0 3.056716 1.528358 6.877612 3.820896 9.934328l10.698507-9.934328h-14.519403 14.519403l-7.641791-12.226866c-3.820896 3.056716-6.877612 7.641791-6.877612 12.226866h14.519403l-7.641791-12.226866-309.492537 198.686567 7.641791 12.226866v-14.519403c-2.292537 0-5.349254 0.764179-7.641791 2.292537l7.641791 12.226866v-14.519403 14.519403l7.641791-12.226866c-2.292537-1.528358-4.585075-2.292537-7.641791-2.292537v14.519403l7.641791-12.226866-7.641791 12.226866 12.991045-6.113433c-1.528358-3.056716-3.056716-5.349254-5.349254-6.113433l-7.641791 12.226866 12.991045-6.113433-16.047761 6.877612-16.047762 6.877612c1.528358 3.820896 4.585075 7.641791 8.40597 9.170149 3.056716 2.292537 7.641791 3.056716 11.462687 3.056716s7.641791-0.764179 11.462687-3.056716l309.492537-199.450746c6.113433-3.820896 9.170149-10.698507 9.170149-17.57612 0-4.585075-1.528358-9.934328-5.349254-13.755224-5.349254-6.113433-11.462687-11.462687-17.576119-16.81194-38.973134-34.38806-88.644776-51.964179-137.552239-51.964179-53.492537 0-107.749254 20.632836-147.486567 61.134328-39.737313 40.501493-59.60597 93.229851-59.60597 145.958209 0 28.274627 6.113433 56.549254 17.576119 83.295523l16.047762-6.877612z" fill="#0C6066" p-id="5410"></path></svg>